<svg xmlns="http://www.w3.org/2000/svg" viewBox="0 0 512 512"><rect width="512" height="512" rx="112" fill="#24734a"/><rect x="112" y="82" width="288" height="348" rx="32" fill="#f7f7f4"/><rect x="140" y="108" width="232" height="52" rx="12" fill="#e6eee7"/><circle cx="340" cy="134" r="8" fill="#24734a"/><circle cx="312" cy="134" r="8" fill="#9ca89e"/><circle cx="256" cy="292" r="100" fill="#24734a"/><circle cx="256" cy="292" r="78" fill="#eaf4ed"/><path d="M202 305c20-41 68-58 109-38 14 7 25 19 32 32-8 38-43 66-85 66-26 0-49-12-64-31 1-10 4-20 8-29Z" fill="#b8d8c0"/><circle cx="256" cy="292" r="10" fill="#24734a"/></svg>
